<svg id="visual" viewBox="0 0 900 600" width="900" height="600" xmlns="http://www.w3.org/2000/svg" xmlns:xlink="http://www.w3.org/1999/xlink" version="1.1"><rect x="0" y="0" width="900" height="600" fill="#00bcd4"></rect><g transform="translate(444.6668725586087 277.06406806373536)"><path d="M50.5 -66.1C73.2 -64 104.8 -63.1 117.4 -49.5C129.9 -35.9 123.3 -9.6 113 11.5C102.6 32.6 88.3 48.4 73.9 62.7C59.4 77 44.8 89.8 25.6 102.5C6.4 115.1 -17.4 127.6 -37.5 123.6C-57.7 119.6 -74.2 99.1 -82.8 78C-91.5 56.8 -92.3 35.1 -99 12C-105.7 -11 -118.3 -35.4 -111.7 -51.4C-105 -67.4 -79 -74.9 -57.2 -77.4C-35.3 -80 -17.7 -77.5 -1.9 -74.5C13.9 -71.6 27.8 -68.2 50.5 -66.1" fill="#e84e8c"></path></g></svg>