<svg id="visual" viewBox="0 0 960 540" width="960" height="540" xmlns="http://www.w3.org/2000/svg" xmlns:xlink="http://www.w3.org/1999/xlink" version="1.1"><rect x="0" y="0" width="960" height="540" fill="#002233"></rect><path d="M0 373L22.8 379.2C45.7 385.3 91.3 397.7 137 407.3C182.7 417 228.3 424 274 418.5C319.7 413 365.3 395 411.2 398.2C457 401.3 503 425.7 548.8 429.8C594.7 434 640.3 418 686 409.5C731.7 401 777.3 400 823 401.3C868.7 402.7 914.3 406.3 937.2 408.2L960 410L960 541L937.2 541C914.3 541 868.7 541 823 541C777.3 541 731.7 541 686 541C640.3 541 594.7 541 548.8 541C503 541 457 541 411.2 541C365.3 541 319.7 541 274 541C228.3 541 182.7 541 137 541C91.3 541 45.7 541 22.8 541L0 541Z" fill="#00bcd4" stroke-linecap="round" stroke-linejoin="miter"></path></svg>